<svg width="69" height="69" viewBox="0 0 69 69" fill="none" xmlns="http://www.w3.org/2000/svg">
<rect x="0.5" y="0.5" width="68" height="68" rx="4.5" fill="#EBEBEB" stroke="#E7E7E7"/>
<path d="M46.5686 21.9566C47.1694 21.3503 47.9857 21.0064 48.8392 21.0001C49.6928 20.9938 50.5141 21.3256 51.1237 21.9231C51.7333 22.5205 52.0816 23.335 52.0926 24.1885C52.1035 25.0419 51.7761 25.8651 51.182 26.4779L33.9915 47.9682C33.6962 48.2862 33.3398 48.5413 32.9437 48.7185C32.5476 48.8957 32.1198 48.9912 31.6859 48.9994C31.252 49.0076 30.821 48.9283 30.4184 48.7662C30.0159 48.6041 29.6502 48.3625 29.3431 48.0559L17.9456 36.6628C17.3399 36.0569 16.9998 35.2351 17 34.3784C17.0002 33.5216 17.3407 32.7001 17.9467 32.0944C18.5527 31.4887 19.3744 31.1486 20.2311 31.1488C21.0879 31.149 21.9094 31.4895 22.5151 32.0955L31.5292 41.1117L46.4831 22.0575C46.5103 22.0228 46.5396 21.9899 46.5708 21.9588L46.5686 21.9566Z" fill="white"/>
</svg>
